# xmcd
#
# Track frame offsets: 
#        150
#        14817
#        33678
#        47769
#        66684
#        83295
#        101688
#        117804
#        129087
#        151341
#        175197
#        189918
#        203766
#        227370
#        240030
#        253905
#
# Disc length: 3551 seconds
#
# Revision: 0
# Processed by: cddbd v1.5.2PL0 Copyright (c) Steve Scherf et al.
# Submitted via: ExactAudioCopy v1.3
#
DISCID=c70ddd10
DTITLE=Dailey and Vincent - Patriots And Poets
DYEAR=2017
DGENRE=Country
TTITLE0=Gimme All The Love You Got
TTITLE1=Beautiful Scars
TTITLE2=Baton Rouge
TTITLE3=Until We're Gone
TTITLE4=Bill And Ole Elijah
TTITLE5=Unsung Heros
TTITLE6=Spring Hill
TTITLE7=God's Love
TTITLE8=California
TTITLE9=Here Comes The Flood
TTITLE10=That Feel Good Music
TTITLE11=He's Been So Good To Me
TTITLE12=No Place Love Won't Go
TTITLE13=That's What We're Put Here To Do
TTITLE14=America, We Love You
TTITLE15=255 North
EXTD=
EXTT0=
EXTT1=
EXTT2=
EXTT3=
EXTT4=
EXTT5=
EXTT6=
EXTT7=
EXTT8=
EXTT9=
EXTT10=
EXTT11=
EXTT12=
EXTT13=
EXTT14=
EXTT15=
PLAYORDER=
